<svg xmlns="http://www.w3.org/2000/svg" width="428.19" height="40.39" viewBox="0 0 428.19 40.39">
  <title>Aktiv 7</title>
  <g id="Lag_2" data-name="Lag 2">
    <g id="Lag_1-2" data-name="Lag 1">
      <g>
        <path d="M9.9,22.59H6.64V39.82H0V0H6.64V16.88h2.6L22.18,0H30l.08.14L15.12,18.85l16.16,21H22.89Z"/>
        <path d="M35.66,39.82V0h13Q55.29,0,59,2.73t3.72,8.13a8,8,0,0,1-1.49,4.73,9.24,9.24,0,0,1-4.14,3.2A8.94,8.94,0,0,1,63,22.1a10,10,0,0,1,2.06,6.29q0,5.61-3.66,8.52T51.27,39.82ZM42.3,16.77h7.11a7.49,7.49,0,0,0,4.88-1.46,5,5,0,0,0,1.79-4.14A5.16,5.16,0,0,0,54.2,6.78a9,9,0,0,0-5.5-1.44H42.3Zm0,4.95v12.8h9a8,8,0,0,0,5.3-1.57,5.63,5.63,0,0,0,1.86-4.55,6.36,6.36,0,0,0-1.83-4.79,7.45,7.45,0,0,0-5.14-1.89H42.3Z"/>
        <path d="M102.4,39.82H95.76v-17H78v17H71.31V0H78v17.5h17.8V0h6.64Z"/>
      </g>
      <g>
        <path d="M169,29l.71,2.9h.16l.68-2.84L180.1,0h7.08L173,39.82h-6.32L152.45,0h7.08Z"/>
        <path d="M222.86,39.82h-6.64L198.58,11.14l-.16.05V39.82h-6.64V0h6.64l17.64,28.68.16-.05V0h6.64Z"/>
        <path d="M253.46,21.91H237.87V34.52h18.38v5.3h-25V0h24.83V5.34H237.87V16.58h15.59Z"/>
        <path d="M268.88,23.3V39.82h-6.64V0h13.7q6.64,0,10.28,3t3.64,8.59a8.88,8.88,0,0,1-1.6,5.32,11,11,0,0,1-4.66,3.57A8.42,8.42,0,0,1,288.45,24a11.13,11.13,0,0,1,1.49,6v3.31a13.4,13.4,0,0,0,.44,3.42,4.89,4.89,0,0,0,1.45,2.54v.63H285A4.37,4.37,0,0,1,283.59,37a24.54,24.54,0,0,1-.3-3.83V30a6.66,6.66,0,0,0-1.76-4.87,6.4,6.4,0,0,0-4.8-1.8Zm0-5.33h6.7q4,0,5.82-1.53a5.75,5.75,0,0,0,1.83-4.68A6.18,6.18,0,0,0,281.43,7q-1.8-1.71-5.5-1.71h-7.05Z"/>
        <path d="M324.31,5.34H312V39.82h-6.64V5.34H293.25V0h31.06Z"/>
        <path d="M359.77,0V26.23q0,6.64-4.36,10.4t-11.25,3.76q-6.78,0-11-3.76t-4.27-10.4V0h6.64V26.23a8.71,8.71,0,0,0,2.38,6.55,8.64,8.64,0,0,0,6.29,2.31,9.12,9.12,0,0,0,6.51-2.31,8.54,8.54,0,0,0,2.46-6.55V0Z"/>
        <path d="M374.18,23.3V39.82h-6.64V0h13.7q6.64,0,10.28,3t3.64,8.59a8.88,8.88,0,0,1-1.6,5.32,11,11,0,0,1-4.66,3.57A8.42,8.42,0,0,1,393.75,24a11.13,11.13,0,0,1,1.49,6v3.31a13.4,13.4,0,0,0,.44,3.42,4.89,4.89,0,0,0,1.45,2.54v.63h-6.84A4.37,4.37,0,0,1,388.89,37a24.54,24.54,0,0,1-.3-3.83V30a6.66,6.66,0,0,0-1.76-4.87,6.4,6.4,0,0,0-4.8-1.8Zm0-5.33h6.7q4,0,5.82-1.53a5.75,5.75,0,0,0,1.83-4.68A6.18,6.18,0,0,0,386.73,7q-1.8-1.71-5.5-1.71h-7.05Z"/>
        <path d="M425.4,21.91H409.81V34.52h18.38v5.3h-25V0H428V5.34H409.81V16.58H425.4Z"/>
      </g>
      <polygon points="128.8 0 137.93 0 146.61 20.38 142.72 34.19 147.95 34.19 147.95 39.75 137.26 39.75 137.04 32.85 140.38 20.93 134.48 7.57 130.57 22.72 118.22 31.96 120.56 36.75 115.1 39.75 110.09 29.29 125.23 19.88 128.8 0" fill="#ff8d8d" opacity="0.95"/>
    </g>
  </g>
</svg>
