<svg xmlns="http://www.w3.org/2000/svg" width="250.17" height="103.27" viewBox="0 0 250.17 103.27">
  <title>footprint_right_1</title>
  <g id="Layer_2" data-name="Layer 2">
    <g id="Layer_1-2" data-name="Layer 1">
      <path d="M28.25,12.58l10.1,1.64c.12,0,.23.07.35.09,2.36.36,4.71.73,7.07,1.07,1.62.24,3.25.4,4.87.65,2.72.42,5.43.91,8.15,1.3,1.34.19,2.71.16,4.06.34,3.1.42,6.2.91,9.29,1.36.63.09,1.27.1,1.91.16,3.88.37,7.76.86,11.65,1.1,3.35.2,6.71.21,10.07.15a46.13,46.13,0,0,0,6.77-.55c3.68-.61,7.34-1.41,11-2.2a41.72,41.72,0,0,0,4.08-1.24c1.65-.54,3.33-1,4.94-1.71,3.38-1.41,6.71-2.94,10.07-4.4,1.71-.75,3.42-1.51,5.16-2.18,2.26-.88,4.55-1.69,6.84-2.5.75-.26,1.55-.37,2.31-.59,1.22-.35,2.42-.77,3.64-1.11.69-.19,1.4-.28,2.1-.42,2.42-.5,4.83-1.14,7.27-1.46,3.28-.43,6.63-.37,9.88-1a36.35,36.35,0,0,1,7.61-.62,9.37,9.37,0,0,1,1.85.39,7.18,7.18,0,0,0,1,.31c3.06.25,6.12.41,9.17.74,2.33.26,4.63.76,7,1.1,1.58.23,3.17.35,4.75.58a11.18,11.18,0,0,1,1.83.49,8.58,8.58,0,0,0,1.67.6c2.28.21,4.36,1.11,6.54,1.67a35.45,35.45,0,0,1,7.85,3.11,50.5,50.5,0,0,1,5.73,3.18,88.81,88.81,0,0,1,8.92,7A62.73,62.73,0,0,1,241,27.75a51.87,51.87,0,0,1,4.45,7.57,28,28,0,0,1,2.32,5.7c.63,2.38.85,4.87,1.26,7.31.14.82.35,1.63.45,2.45a9.51,9.51,0,0,1,.16,2.6,79.59,79.59,0,0,1-1.54,8.09,44.38,44.38,0,0,1-2.33,6A27,27,0,0,1,244,70.82a44.76,44.76,0,0,1-3.45,5.26,40.21,40.21,0,0,1-8.35,7.85c-1.78,1.21-3.42,2.62-5.2,3.83-1.37.94-2.86,1.72-4.29,2.57-.92.55-1.81,1.15-2.76,1.63-2.23,1.12-4.54,2.09-6.73,3.27-2.57,1.39-5.46,1.94-8.06,3.11-2.9,1.31-6.11,1.16-8.94,2.54a7.58,7.58,0,0,1-2.24.32c-3.43.47-6.86,1-10.31,1.37a18.35,18.35,0,0,1-7.5-.36,8.51,8.51,0,0,0-1.66-.21c-5.06-.57-10.2-.51-15.16-2-1.52-.44-3.16-.42-4.73-.71-2.07-.39-4.14-.82-6.19-1.34-2.81-.72-5.59-1.53-8.39-2.31l-.58-.16c-2.87-.75-5.77-1.43-8.62-2.26-2.63-.77-5.21-1.71-7.81-2.57-.26-.09-.54-.15-.8-.23l-4.17-1.32c-.11,0-.22-.09-.34-.13-2.38-.65-4.77-1.24-7.13-2-2.77-.84-5.47-1.91-8.26-2.64-3.19-.84-6.46-1.4-9.69-2.11-.81-.18-1.6-.42-2.4-.65a17.25,17.25,0,0,0-1.71-.53c-3.21-.57-6.42-1.11-9.63-1.65l-.24,0c-5.49-.36-10.81-2.09-16.37-1.94-1.31,0-2.62-.57-3.95-.66-5.26-.33-10.52-.76-15.79-.78-3.23,0-6.31-.76-9.48-1-1.27-.11-2.53-.33-3.8-.46-3.17-.32-6.07-1.6-9.07-2.51A26.26,26.26,0,0,1,12.6,68a24.5,24.5,0,0,1-8.27-9.6c-.85-1.85-1.71-3.68-2.54-5.54a5.6,5.6,0,0,1-.46-1.61,54.6,54.6,0,0,1-.81-8.42,40.65,40.65,0,0,1,2-12.05,27.48,27.48,0,0,1,8.49-12.62A19.29,19.29,0,0,1,17,14.85c3.61-1.2,7.3-2.37,11.24-1.82ZM180.42,98.65c1.56,0,3.12,0,4.68,0a6.81,6.81,0,0,0,1.27-.26c.73-.16,1.45-.37,2.19-.47a53.19,53.19,0,0,0,6.85-1c2.67-.74,5.48-.85,8-2.17,2-1.05,4.42-1.46,6.59-2.31,1.7-.67,3.33-1.54,5-2.37,2.34-1.19,4.73-2.31,7-3.67s4.42-3,6.59-4.53a42.77,42.77,0,0,0,10.14-9.77,42.56,42.56,0,0,0,5-9.49A28.13,28.13,0,0,0,245.54,53a39.16,39.16,0,0,0-1-9,46.54,46.54,0,0,0-2.61-7,35.54,35.54,0,0,0-5.84-9.29,49.69,49.69,0,0,0-9.92-9.32c-2.77-1.93-5.7-3.64-8.64-5.33a29.83,29.83,0,0,0-4.26-1.81c-1.18-.45-2.39-.8-3.59-1.19-.34-.11-.7-.18-1-.27-2.74-.78-5.46-1.68-8.24-2.3s-5.49-1-8.25-1.34c-4.5-.57-9-1.14-13.54-1.51-4.83-.39-9.64.23-14.43.78a62,62,0,0,0-6.16.84c-2.7.59-5.32,1.6-8,2.12a51.94,51.94,0,0,0-13.3,4.54q-1.92,1-3.88,1.8c-1.66.72-3.35,1.38-5,2.1-2,.84-3.86,1.86-5.88,2.54-2.44.82-5,1.36-7.46,2l-1.85.5c-1.07.27-2.14.63-3.23.79-2.7.41-5.46.44-8.06,1.43a2.18,2.18,0,0,1-.71.07c-2.44,0-4.88.2-7.32.11-4.18-.17-8.37.26-12.53-.71a40.46,40.46,0,0,0-6.43-.61c-3.74-.26-7.43-.82-11.13-1.42-5.35-.87-10.77-1.3-16.14-2-2.37-.32-4.68-1-7-1.4-1.29-.23-2.62-.24-3.93-.42-2-.28-4-.7-6-.9a25.75,25.75,0,0,0-10.59,1.36,20.09,20.09,0,0,0-4.61,2.13A19.32,19.32,0,0,0,8.56,27a30.75,30.75,0,0,0-3.73,9.53c-.36,1.84-.58,3.7-.84,5.56a3.4,3.4,0,0,0,0,1.54c1.13,3.07.12,6.63,2.24,9.46.07.09,0,.24.1.34a26,26,0,0,0,2,4.43,28.32,28.32,0,0,0,9.84,9c3.42,1.89,7.14,2.65,10.75,3.82,2.71.88,5.69.25,8.49,1.2a17.89,17.89,0,0,0,5,.4c6.33.23,12.68-.07,19,1.1,2,.37,4,.44,6.07.64,1.63.16,3.27.24,4.89.48,2.13.32,4.23.78,6.35,1.13,1.3.22,2.63.27,3.92.53,3.42.7,6.8,1.6,10.24,2.2a95,95,0,0,1,12.63,3.13q5.15,1.64,10.34,3.18c2.52.75,5.06,1.43,7.59,2.12l6.58,1.79c.19.05.36.18.54.25,1,.36,2.08.73,3.14,1.06.49.15,1,.18,1.52.33,2.94.88,5.86,1.8,8.8,2.65,1,.29,2,.34,3,.59,3,.73,5.9,1.58,8.88,2.22,1.91.41,3.88.48,5.81.8,1.65.27,3.27.69,4.9,1,2.92.59,6-.23,8.84,1.1a1.51,1.51,0,0,0,.59,0Z" style="fill: #ff8d8d;stroke: #ff8d8d;stroke-miterlimit: 10"/>
    </g>
  </g>
</svg>
