<svg xmlns="http://www.w3.org/2000/svg" width="249.75" height="102.48" viewBox="0 0 249.75 102.48">
  <title>footprint_left_1</title>
  <g id="Layer_2" data-name="Layer 2">
    <g id="Layer_1-2" data-name="Layer 1">
      <path d="M249.24,50.95c0,1.64,0,3.28,0,4.92a5.89,5.89,0,0,1-.4,1.48,11,11,0,0,0-.58,1.81,25.51,25.51,0,0,1-3.42,9.61A60.9,60.9,0,0,1,240,76.55a69.76,69.76,0,0,1-7.29,7.54,75.62,75.62,0,0,1-7,5.6,39.73,39.73,0,0,1-10.48,5.43c-1.9.65-3.83,1.26-5.76,1.81-2.42.68-4.84,1.36-7.3,1.86-3.27.67-6.61,1-9.84,1.8-3.42.82-6.89.75-10.34,1-2.71.17-5.42.5-8.12.42-4.43-.13-8.86-.41-13.26-.88a50.65,50.65,0,0,1-8.41-1.65c-4.2-1.19-8.38-2.53-12.47-4.07-3.63-1.37-7.12-3.13-10.69-4.67-1.77-.77-3.59-1.43-5.39-2.13-2-.79-4-1.72-6.11-2.31-3.17-.9-6.41-1.57-9.63-2.31-1.17-.27-2.34-.49-3.53-.67a80.35,80.35,0,0,0-18-.59c-2.5.18-5,.3-7.51.54-4.6.44-9.28.58-13.76,1.56-3.35.73-6.73.59-10,1.28-4.41.91-8.85,1.62-13.29,2.4-.82.14-1.67.18-2.5.3-2.87.41-5.74.93-8.62,1.23-2.29.23-4.6.48-6.87-.35-1-.36-2.12-.36-3.15-.66-2.13-.61-4.28-1.21-6.34-2a10.47,10.47,0,0,1-2.93-2C7.92,82,4.93,78.7,3.48,74.28c-.69-2.1-1.75-4.1-2.29-6.24a24.69,24.69,0,0,1-.68-5.93A45.21,45.21,0,0,1,1,53.28a36.38,36.38,0,0,1,2.85-7.95A26.76,26.76,0,0,1,14.28,33.77,45.31,45.31,0,0,1,23,29.94c2.77-1,5.61-1.1,8.38-1.8,4.27-1.09,8.66-1,13-1.06,3.34-.05,6.69-.38,10-.65,4.33-.36,8.65-.77,13-1.2,1-.1,2-.37,3.06-.52,2.68-.38,5.37-.7,8-1.11a21.06,21.06,0,0,0,2.27-.67c.61-.17,1.23-.3,1.85-.41L90,21.22c.83-.14,1.66-.25,2.48-.43A80.47,80.47,0,0,0,103.16,18c2-.74,4.05-1.13,6.07-1.74,3.21-1,6.39-2,9.59-3,.49-.15,1-.16,1.52-.32,1-.31,1.93-.66,2.89-1,.3-.11.57-.31.87-.39,2.69-.72,5.39-1.39,8.06-2.15s5.31-1.67,8-2.37c3.16-.82,6.37-1.48,9.55-2.19,3.89-.87,7.77-1.76,11.67-2.55,1.64-.33,3.33-.37,5-.59,2.11-.28,4.29-.16,6.3-1.09a2.67,2.67,0,0,1,1.07-.1c4.16,0,8.32,0,12.47,0a28,28,0,0,1,3.65.59c2.17.33,4.37.51,6.51,1,2.86.66,5.67,1.55,8.5,2.35.31.09.59.24.89.35C207.85,5.54,210,6.1,212,7c2.64,1.16,5.2,2.51,7.76,3.86,2.31,1.23,4.61,2.48,6.82,3.88,1.81,1.15,3.48,2.52,5.2,3.81a46.5,46.5,0,0,1,8.83,8.39,51.37,51.37,0,0,1,4.34,6.54c1.73,3.07,2.57,6.47,3.6,9.83C249.3,45.88,249.11,48.39,249.24,50.95ZM90.23,79.1c5.6,0,11.23-.66,16.77.8,1.92.51,4,.55,5.89,1.06,2.45.64,4.83,1.54,7.24,2.33,2.21.72,4.44,1.38,6.62,2.19,1.6.6,3.12,1.4,4.66,2.12l4.65,2.19c1.07.51,2.09,1.13,3.2,1.53,2.51.9,5,1.76,7.6,2.52,2.74.81,5.51,1.52,8.28,2.19,1.55.37,3.14.56,4.72.82a46.33,46.33,0,0,0,5.9.89c5.08.16,10.16.23,15.24.11,3.14-.07,6.27-.52,9.4-.86,2.21-.24,4.41-.59,6.62-.89a11.05,11.05,0,0,0,1.17-.23c3.48-.88,7-1.71,10.42-2.66a45.63,45.63,0,0,0,6.54-2.16,55.67,55.67,0,0,0,7.34-4,50.54,50.54,0,0,0,7.09-5.29,70.22,70.22,0,0,0,7.67-8.21,45.19,45.19,0,0,0,5.15-8.43,50.23,50.23,0,0,0,2.37-7.73,12,12,0,0,0,.71-3.14c0-3.65.38-7.28-.81-10.92a52,52,0,0,0-2.63-6.9,31.08,31.08,0,0,0-5.27-7.94,60.75,60.75,0,0,0-5.13-5c-2.48-2-5.13-3.9-7.75-5.77a32.92,32.92,0,0,0-3.39-2c-2.58-1.41-5.16-2.84-7.79-4.15-1.59-.8-3.28-1.41-4.94-2.08-.88-.35-1.78-.65-2.68-1-.49-.16-1-.25-1.49-.4-1.32-.4-2.63-.83-3.95-1.21-.69-.2-1.39-.35-2.09-.5-3.1-.64-6.18-1.5-9.32-1.84-3.64-.39-7.32-.33-11-.43a11.46,11.46,0,0,0-1.9.19c-2.08.29-4.15.64-6.23.89-2.34.29-4.71.35-7,.77-4.27.78-8.51,1.73-12.75,2.67-1.71.38-3.37.92-5.07,1.35-2.82.7-5.64,1.36-8.46,2-.08,0-.15.07-.22.09l-3.92,1.29L123.93,16c-.57.18-1.15.33-1.72.49-2.43.68-4.87,1.31-7.29,2-2.7.82-5.36,1.81-8.07,2.57s-5.77,1.42-8.66,2.12c-.12,0-.22.09-.34.12-1.33.36-2.65.75-4,1.06a16.45,16.45,0,0,0-2.71.47C87.69,26.3,83.9,26.11,80.3,27s-7.46,1.06-11.2,1.68-7.63.56-11.44.81c-.32,0-.63.1-.94.15a23,23,0,0,1-3.17.45c-5.88.05-11.75-.06-17.62.1a29.66,29.66,0,0,0-6.47,1.12,42,42,0,0,0-7.35,2.39,51.45,51.45,0,0,0-7.25,4.35c-5.64,3.87-8.61,9.54-10.06,16-.56,2.49-.26,5.17-.5,7.75C4,65.32,5.73,68.32,6.36,71.58a.85.85,0,0,0,.1.22C7.28,73.34,8,75,8.93,76.43a17.64,17.64,0,0,0,6.15,6.42,26.12,26.12,0,0,0,7.46,2.7,26.29,26.29,0,0,0,9.74.28C36.17,85.18,40.1,85,44,84c4.06-1.12,8.38-1.3,12.6-1.87,1-.13,2-.13,3-.26,3.44-.45,6.87-.95,10.31-1.4,1.9-.25,3.81-.45,5.71-.69,1.58-.2,3.14-.59,4.72-.64C83.59,79,86.92,79.1,90.23,79.1Z" style="fill: #ff8d8d;stroke: #ff8d8d;stroke-miterlimit: 10"/>
    </g>
  </g>
</svg>
