<svg xmlns="http://www.w3.org/2000/svg" width="123.5" height="106" viewBox="0 0 123.5 106">
  <title>Hovedvagten_ikon</title>
  <g id="Layer_2" data-name="Layer 2">
    <g id="Layer_3" data-name="Layer 3">
      <polygon points="0 105.5 0 99.5 6 99.5 6 92.5 12.5 92 12.5 86 110.5 86 110.5 93 117.5 93 117.5 100 123.5 100 123.5 106 0 105.5" fill="#c1b9ae"/>
      <polygon points="44.5 86.49 45.34 32 54.34 32 55.62 86.15 44.5 86.49" fill="#c1b9ae"/>
      <polygon points="21.5 86.49 22.34 32 31.34 32 32.62 86.15 21.5 86.49" fill="#c1b9ae"/>
      <polygon points="68.5 86.49 69.34 32 78.34 32 79.62 86.15 68.5 86.49" fill="#c1b9ae"/>
      <polygon points="92.5 86.49 93.34 32 102.34 32 103.62 86.15 92.5 86.49" fill="#c1b9ae"/>
      <rect x="18.5" y="27" width="87" height="5" fill="#c1b9ae"/>
      <polygon points="118.5 27 63.5 0 7.5 27 118.5 27" fill="#c1b9ae"/>
    </g>
  </g>
</svg>
