<svg xmlns="http://www.w3.org/2000/svg" width="514.01" height="505.15" viewBox="0 0 514.01 505.15">
  <title>kuglegaarden_icon</title>
  <g id="Layer_2" data-name="Layer 2">
    <g id="Layer_2-2" data-name="Layer 2">
      <path d="M231.5,201.56h-23l-1-199c-135,14-205,172-205,172l-2,330,208-36,1-181,23-1Zm-210,282-2-99,28-5,1,99Zm28-121-29,4-1-187,31-50Zm19,110v-95l26-5,1,95Zm1-115-1-255,26-28,2,279Zm46,108-1-97,26-5,1,98Zm27-121-29,4v-289l29-17Zm18,114v-98l29-5,1,98Zm30-121-30,4-1-309,31-10Z" stroke="#000" stroke-miterlimit="10"/>
      <path d="M512.5,177.56c-66-162-206-177-206-177l1,467,206,35Zm-187-154,27,10v306l-27-5Zm29,436-29-7v-98l29,5Zm45-398v286l-26-4-2-301Zm1,406-27-7-1-97,28,6Zm46,7-27-6v-97l28,4Zm2-116-30-7,1-277,29,30Zm45,124-27-7v-97l27,4Zm1-116-29-4-1-234,31,52Z" stroke="#000" stroke-miterlimit="10"/>
    </g>
  </g>
</svg>
