<svg xmlns="http://www.w3.org/2000/svg" width="612" height="612" viewBox="0 0 612 612">
  <title>MAILgreen</title>
  <g id="Layer_2" data-name="Layer 2">
    <g id="Capa_1" data-name="Capa 1">
      <path d="M306,612a299.21,299.21,0,0,1-81.4-11,310.37,310.37,0,0,1-73.13-30.91A306.41,306.41,0,0,1,41.92,460.53,310.33,310.33,0,0,1,11,387.4,306.22,306.22,0,0,1,11,224.6a310.29,310.29,0,0,1,30.91-73.13A306.41,306.41,0,0,1,151.47,41.92,310.29,310.29,0,0,1,224.6,11,299.21,299.21,0,0,1,306,0q63,0,119,24.17t97.31,65.48Q563.65,131,587.83,187T612,306a299.21,299.21,0,0,1-11,81.4,310.45,310.45,0,0,1-30.91,73.13A306.41,306.41,0,0,1,460.53,570.08,310.31,310.31,0,0,1,387.39,601,299.2,299.2,0,0,1,306,612ZM453.49,179.93H163.4a10.6,10.6,0,0,0-7.34,2.75,9.77,9.77,0,0,0-3.06,7.65v32.44q0,2.45,1.84,2.45l152.39,86.9,1.23.61a2.5,2.5,0,0,0,1.84-.61l147.49-86.9a4.69,4.69,0,0,1,1.84-.61,4.71,4.71,0,0,0,1.84-.61,2.16,2.16,0,0,0,2.45-2.45V190.33a9.76,9.76,0,0,0-3.06-7.65A10.6,10.6,0,0,0,453.49,179.93ZM245.41,310.28a2.5,2.5,0,0,0,.61-1.84c0-1.23-.41-1.84-1.22-1.84l-87.52-50.18a3.94,3.94,0,0,0-3.06,0q-1.22,0-1.22,1.84V389.84a2.4,2.4,0,0,0,1.84,2.45h1.22q1.22,0,1.22-.61Zm106.49,9.79q-.61-1.84-3.06-.61L315.18,339q-6.12,3.67-12.85,0l-29.38-16.52q-1.84-1.22-3.06,0l-112,104a3.54,3.54,0,0,0-.61,2.45q0,.61,1.22,1.84a20.07,20.07,0,0,0,4.9,1.23h287a3.52,3.52,0,0,0,2.45-1.23q0-2.45-.61-3.06ZM462.06,254h-2.45l-83.23,49.57c-.81,0-1.22.61-1.22,1.84q-.61.61.61,1.83l83.23,90q1.22,1.22,1.84,1.23h1.22q1.84-1.84,1.84-2.45V256.43Q463.89,255.2,462.06,254Z" fill="#80c574"/>
    </g>
  </g>
</svg>
