<svg xmlns="http://www.w3.org/2000/svg" width="236.88" height="316.05" viewBox="0 0 236.88 316.05">
  <title>mindesoejle_icon</title>
  <g id="Layer_2" data-name="Layer 2">
    <g id="Layer_2-2" data-name="Layer 2">
      <path d="M63.38,283.32" fill="#fff"/>
      <polygon points="0 297.1 0 316.05 236.88 314.33 236.88 292.8 41.37 296.35 0 297.1" fill="#666662"/>
      <polygon points="39.05 297.37 38.8 287.73 173.78 285.15 174.03 295.86 39.05 297.37" fill="#666662"/>
    </g>
    <g id="Layer_3" data-name="Layer 3">
      <polyline points="67.05 288.31 64.04 7.05 73.11 23.89 78.3 0.57 88.66 22.59 89.81 19.29 90.86 16.29 92.67 21.36 93.4 14.48 95.21 21.36 99.91 1.81 104.26 20.64 107.88 15.93 112.58 0 113.31 18.46 117.25 12.99 121.03 17.13 128.1 3.99 133.12 16.02 134.12 286.71" fill="#666662"/>
      <polygon points="64.69 46.03 64.69 53.96 132.97 52.83 132.97 43.77 64.69 46.03" fill="#4f4f4e"/>
      <polygon points="65.36 99.24 65.36 107.16 133.64 106.03 133.64 96.97 65.36 99.24" fill="#4f4f4e"/>
      <polygon points="65.86 163.82 65.86 171.75 134.15 170.62 134.15 161.56 65.86 163.82" fill="#4f4f4e"/>
      <path d="M134.09,230.94v-8.68L66.36,224.5v7.92l67.77-1.12A2.19,2.19,0,0,1,134.09,230.94Z" fill="#4f4f4e"/>
    </g>
  </g>
</svg>
