<svg id="Layer_1" data-name="Layer 1" xmlns="http://www.w3.org/2000/svg" xmlns:xlink="http://www.w3.org/1999/xlink" width="1217.2" height="639.88" viewBox="0 0 1217.2 639.88">
  <defs>
    <linearGradient id="Ikke-navngivet_forløb_232" data-name="Ikke-navngivet forløb 232" x1="710.15" y1="36.83" x2="606.63" y2="576.37" gradientUnits="userSpaceOnUse">
      <stop offset="0" stop-color="#006423"/>
      <stop offset="0.14" stop-color="#076a26"/>
      <stop offset="0.34" stop-color="#197a2f"/>
      <stop offset="0.57" stop-color="#37943d"/>
      <stop offset="0.83" stop-color="#61b851"/>
      <stop offset="1" stop-color="#81d460"/>
    </linearGradient>
  </defs>
  <title>overlayholmen</title>
  <path d="M498.29,450.35l24.84,14.3-2.2,5.27,27.68,16.25,1.4-2,14.57,11.56,16.74,9.37L598.5,517a7.17,7.17,0,0,1,1.26,3.54V540l7.58,9.34s3.54,7.07,4,11.11,4.8,22.22,4.8,22.22l4,16.16L624.76,618l38.89,1.26s13.64-13.64,17.93-20.2l41.17-48,23-49.75-106.58-51,2.78-4.56,66.67,31.06,3-3.54,16.5,6.92,1.49-1.69-17-8.26,2-4.88,17.62,8.17L743,451.21,737.37,448l11-17.73,17.48-89.38-4.23-56.3-13-6-.16-1.13L730.17,268l3-5.69-1.67-1.45,1.78-3.68h2.23l2.34-4.57-.61-1.56,3.43-6.44s.82-1.23,1.51-1.23,10-.69,10-.69H764.8s4.11,2.06,6.17,0l10.55-1,3.84,1.78,11.24.55s.14,3.43,4.38,1.37l1.51.82.39-9.1-8-.31a3.67,3.67,0,0,1-3.67-2.29l-13.43-60.29-13.48-59.73-6.05-25.69,6.17-1.14,3.77-11.53-9.94-56-12.68-8-15.3,3.54L704.88,24l.91,8.56,4.23-.23.46,3.54-6.17,1.83L666.8,39.17l-.33,8.68,44.46-.08L710.68,89l-13.1,7.26-1,43.13,11.93.33,1.33,1.91.68,20.59-.39,13.76-1.75,2.76-2.26-1.8L696.7,196l3.44,1.92-17.32,37.34a2.18,2.18,0,0,0,1.3,3.55l46.31,10.55-2,4.23,1.13,2.09-1.41,2.93-2.2.23-6,10.89L711.66,286,698,278.53l8.6-19.36-.76-3-32.64-7.34-12.4,27.07-7.06-3.35,6.32-11.46L607.5,235l-9.88,20.16,3.54,1.35-.44,1.6,7.36,3.93s22.44,10.13,24.33,12.24c0,0,1.17,5.75-4.44,5.24l-27.75-13.4s-2.19-2.4-3.79-.29l-3.35-2-12.38,24.48,2.19,1.24-2.48,5.1-8-3.57-16,34.67,7.43,3.72L562.72,335l-1.79-.64-1.56,6.49L555.46,357l-7.63,29,41,20.53,10-19.86L607,391l-14.84,32.07,45.58,20.27L635.19,450l-2.25-1.33-2.65,1.06-14.71-6.36-1.46-2.12-24.51-10.87-14.18,28.22-12.06,28.09-9.28-7.16s-.66-2.92.4-4,1.06-2.78.13-3.45l22.66-46.25-23.06-11.4s-.66.8-2.65,0l-27.3-12.19Z" fill="url(#Ikke-navngivet_forløb_232)"/>
  <rect x="552.12" y="488.88" width="19.41" height="13.46" fill="#3b5af2"/>
  <text transform="translate(553.38 499.75)" font-size="7.54" fill="#fcfafa" font-family="Roboto-BoldCondensed, Roboto BoldCondensed" font-weight="700">S<tspan x="3.72" y="0" letter-spacing="-0.04em">L</tspan><tspan x="7" y="0">UT</tspan></text>
  <circle cx="564.76" cy="491.09" r="1.55" fill="#f4ff85"/>
  <path d="M434.54,445.64l-16.43-5.75,13-20.25,3.48-5.09,14.21,5.1-8.08,13.17,10.86-6.91,4.8.31-.25,1.48-4.31-.62-11.44,7.86-1.83,3.65,2.7,1s2.45-1.93,3.89-.42L443,443.3s-2.69-.72-2-2.72l-3.12-1Z" fill="#bebfbe"/>
  <polygon points="436.47 438.06 442.48 440.19 442.43 440.39 436.34 438.16 436.47 438.06" fill="#2a2e40"/>
  <polygon points="436.25 438.44 442.26 440.57 442.21 440.77 436.12 438.54 436.25 438.44" fill="#2a2e40"/>
  <path d="M442.67,442.75a2.44,2.44,0,0,1-1.58-2.39l-.25-.09s0,2.38,1.66,2.6C442.5,442.86,442.76,442.89,442.67,442.75Z" fill="#2a2e40"/>
  <path d="M441,439.67a9.47,9.47,0,0,1,2.5-1,1.83,1.83,0,0,1,1.11.31c.07,0,0,.17-.43-.06a2.89,2.89,0,0,0-2.79.91" fill="#2a2e40"/>
  <polygon points="427.66 425.01 436.97 427.66 438.85 424.69 438.12 420.09 436.66 423.2 434.56 422.64 429.89 421.53 427.66 425.01" fill="#f9f5dd"/>
  <polyline points="433.67 422.99 429.61 421.97 427.26 425.63 431.2 426.69 432.34 423.04 433.67 422.99" fill="#ff836b"/>
  <polygon points="438.51 419.85 436.66 423.2 429.89 421.53 432.52 417.58 437.87 419.36 438.51 419.85" fill="#474a60"/>
  <polygon points="431.75 430.27 434.31 426.54 433.67 422.99 432.34 423.04 431.2 426.69 431.75 430.27" fill="#edd9cd"/>
  <polygon points="431.2 426.69 427.26 425.63 426 427.6 431.75 430.27 431.2 426.69" fill="#edd9cd"/>
  <polygon points="427.82 436.81 430.95 432.32 430.18 428.95 428.53 429.02 427.41 433.38 427.82 436.81" fill="#eba29b"/>
  <polygon points="421.4 434.76 422.99 432.28 427.41 433.38 427.82 436.81 421.4 434.76" fill="#eba29b"/>
  <polygon points="427.41 433.33 428.63 429.01 430.18 428.95 426 427.6 422.92 432.4 427.41 433.33" fill="#3a3a3a"/>
  <text transform="translate(412.57 414.92)" font-size="11.3" fill="#fff" font-family="Roboto-BoldCondensed, Roboto BoldCondensed" font-weight="700">S<tspan x="5.57" y="0" letter-spacing="-0.07em">T</tspan><tspan x="10.34" y="0">A</tspan><tspan x="17.26" y="0" letter-spacing="0.01em">R</tspan><tspan x="23.45" y="0">T</tspan></text>
  <path d="M446.38,442.55a4.58,4.58,0,0,1,5.44.24s2.55,2.76,4.71.39" fill="none" stroke="#fff" stroke-miterlimit="10"/>
  <path d="M459.7,442.39a4.58,4.58,0,0,1,3.78-3.92s3.76-.09,3.41-3.28" fill="none" stroke="#fff" stroke-miterlimit="10"/>
  <path d="M468.19,433.22A4.58,4.58,0,0,1,472,429.3s3.76-.09,3.41-3.28" fill="none" stroke="#fff" stroke-miterlimit="10"/>
  <path d="M476.35,423.86a4.58,4.58,0,0,1,3.78-3.92s3.76-.09,3.41-3.28" fill="none" stroke="#fff" stroke-miterlimit="10"/>
  <path d="M484.56,414.1a4.58,4.58,0,0,1,3.78-3.92s3.76-.09,3.41-3.28" fill="none" stroke="#fff" stroke-miterlimit="10"/>
  <path d="M492.41,404.55a4.58,4.58,0,0,1,3.31-4.33s3.72-.52,3-3.65" fill="none" stroke="#fff" stroke-miterlimit="10"/>
  <path d="M499.26,394.79a4.58,4.58,0,0,1,.8-5.39s3-2.25.87-4.65" fill="none" stroke="#fff" stroke-miterlimit="10"/>
  <path d="M500.45,381.84a4.58,4.58,0,0,1,2-5.09s3.43-1.55,1.86-4.35" fill="none" stroke="#fff" stroke-miterlimit="10"/>
  <path d="M503.89,369.44a4.58,4.58,0,0,1,2-5.09s3.43-1.55,1.86-4.35" fill="none" stroke="#fff" stroke-miterlimit="10"/>
  <path d="M507.39,357.44a4.72,4.72,0,0,1,4.37-3.22s3.69.38,3.89-2.66" fill="none" stroke="#fff" stroke-miterlimit="10"/>
  <path d="M516.59,348a4.72,4.72,0,0,1,4.37-3.22s3.69.38,3.89-2.66" fill="none" stroke="#fff" stroke-miterlimit="10"/>
  <path d="M524.82,339.89a4.72,4.72,0,0,1,2.29-4.92s3.42-1.44,2.14-4.2" fill="none" stroke="#fff" stroke-miterlimit="10"/>
  <path d="M528.51,328.5a4.72,4.72,0,0,1,2.29-4.92s3.42-1.44,2.14-4.2" fill="none" stroke="#fff" stroke-miterlimit="10"/>
  <path d="M532.43,316.7a4.72,4.72,0,0,1,3.21-4.37s3.64-.73,2.92-3.7" fill="none" stroke="#fff" stroke-miterlimit="10"/>
  <path d="M538.66,305.84a4.72,4.72,0,0,1,3.21-4.37s3.64-.73,2.92-3.7" fill="none" stroke="#fff" stroke-miterlimit="10"/>
  <path d="M544.12,296.12a4.72,4.72,0,0,1,1-5.33s3-2.24,1-4.6" fill="none" stroke="#fff" stroke-miterlimit="10"/>
  <path d="M545.31,284.67a4.72,4.72,0,0,1,2.39-4.87s3.45-1.36,2.22-4.16" fill="none" stroke="#fff" stroke-miterlimit="10"/>
  <path d="M549.22,274.35a4.72,4.72,0,0,1,3.46-4.18s3.67-.52,3.13-3.52" fill="none" stroke="#fff" stroke-miterlimit="10"/>
  <path d="M555.87,265a4.72,4.72,0,0,1,3.46-4.18s3.67-.52,3.13-3.52" fill="none" stroke="#fff" stroke-miterlimit="10"/>
  <path d="M562.89,255.46a4.72,4.72,0,0,1,4.58-2.91s3.66.63,4.06-2.39" fill="none" stroke="#fff" stroke-miterlimit="10"/>
  <path d="M572.9,248.9a4.72,4.72,0,0,1,4.1-3.55s3.71.09,3.67-3" fill="none" stroke="#fff" stroke-miterlimit="10"/>
  <path d="M580.48,240.59a4.72,4.72,0,0,1,.12-5.42s2.56-2.69.27-4.71" fill="none" stroke="#fff" stroke-miterlimit="10"/>
  <path d="M581.3,228.44a4.72,4.72,0,0,1,2.43-4.85s3.46-1.34,2.25-4.14" fill="none" stroke="#fff" stroke-miterlimit="10"/>
  <path d="M587.28,217.39a4.72,4.72,0,0,1,4-3.67s3.71,0,3.58-3.07" fill="none" stroke="#fff" stroke-miterlimit="10"/>
  <path d="M596.4,208.69a4.72,4.72,0,0,1,5.39-.63s3,2.16,4.7-.39" fill="none" stroke="#fff" stroke-miterlimit="10"/>
  <path d="M608.52,205.86a4.72,4.72,0,0,1,5.19,1.58s1.9,3.19,4.46,1.53" fill="none" stroke="#fff" stroke-miterlimit="10"/>
  <path d="M620.87,208.94a4.72,4.72,0,0,1,4.37,3.21s.73,3.64,3.7,2.92" fill="none" stroke="#fff" stroke-miterlimit="10"/>
  <path d="M631.64,216.34a4.72,4.72,0,0,1,4.37,3.21s.73,3.64,3.7,2.92" fill="none" stroke="#fff" stroke-miterlimit="10"/>
  <path d="M642.51,224.24a4.72,4.72,0,0,1,4.37,3.21s.73,3.64,3.7,2.92" fill="none" stroke="#fff" stroke-miterlimit="10"/>
  <path d="M653.58,231.38a4.72,4.72,0,0,1,3.35,4.27s-.27,3.7,2.78,3.81" fill="none" stroke="#fff" stroke-miterlimit="10"/>
  <path d="M662.76,239.58a4.72,4.72,0,0,1,4.57,2.93s1,3.58,3.88,2.68" fill="none" stroke="#fff" stroke-miterlimit="10"/>
  <path d="M673,245.07a4.72,4.72,0,0,1,4.78,2.57s1.24,3.5,4.07,2.37" fill="none" stroke="#fff" stroke-miterlimit="10"/>
  <path d="M683.79,249.94a4.72,4.72,0,0,1,5.37.75s2.37,2.86,4.64.82" fill="none" stroke="#fff" stroke-miterlimit="10"/>
  <path d="M695.39,250.89a4.72,4.72,0,0,1,5.28,1.25s2.09,3.07,4.54,1.25" fill="none" stroke="#fff" stroke-miterlimit="10"/>
  <path d="M706.81,253.08a4.72,4.72,0,0,1,4.67,2.76s1.09,3.55,4,2.54" fill="none" stroke="#fff" stroke-miterlimit="10"/>
  <path d="M716.7,259.5a4.72,4.72,0,0,1,1.45,5.23s-1.68,3.31,1.1,4.58" fill="none" stroke="#fff" stroke-miterlimit="10"/>
  <line x1="725.54" y1="268.29" x2="727.57" y2="264.16" fill="#fff" stroke="#ff8d8d" stroke-miterlimit="10"/>
  <line x1="722.89" y1="273.44" x2="724.92" y2="269.32" fill="#fff" stroke="#ff8d8d" stroke-miterlimit="10"/>
  <line x1="720.24" y1="279.43" x2="722.27" y2="275.31" fill="#fff" stroke="#ff8d8d" stroke-miterlimit="10"/>
  <line x1="717.22" y1="285.09" x2="719.25" y2="280.97" fill="#fff" stroke="#ff8d8d" stroke-miterlimit="10"/>
  <line x1="714.45" y1="290.76" x2="716.47" y2="286.63" fill="#fff" stroke="#ff8d8d" stroke-miterlimit="10"/>
  <line x1="711.78" y1="295.86" x2="713.8" y2="291.74" fill="#fff" stroke="#ff8d8d" stroke-miterlimit="10"/>
  <line x1="710.76" y1="301.38" x2="711.37" y2="296.83" fill="#fff" stroke="#ff8d8d" stroke-miterlimit="10"/>
  <line x1="713.17" y1="307.21" x2="711.45" y2="302.96" fill="#fff" stroke="#ff8d8d" stroke-miterlimit="10"/>
  <line x1="718.54" y1="309.33" x2="714.16" y2="307.92" fill="#fff" stroke="#ff8d8d" stroke-miterlimit="10"/>
  <line x1="724.45" y1="311.3" x2="720.08" y2="309.9" fill="#fff" stroke="#ff8d8d" stroke-miterlimit="10"/>
  <line x1="730.62" y1="313.27" x2="726.25" y2="311.87" fill="#fff" stroke="#ff8d8d" stroke-miterlimit="10"/>
  <line x1="736.08" y1="315.5" x2="731.77" y2="313.92" fill="#fff" stroke="#ff8d8d" stroke-miterlimit="10"/>
  <line x1="741.27" y1="317.6" x2="736.96" y2="316.02" fill="#fff" stroke="#ff8d8d" stroke-miterlimit="10"/>
  <line x1="745.61" y1="321.2" x2="742.46" y2="317.86" fill="#fff" stroke="#ff8d8d" stroke-miterlimit="10"/>
  <line x1="745.4" y1="327.1" x2="745.78" y2="322.52" fill="#fff" stroke="#ff8d8d" stroke-miterlimit="10"/>
  <line x1="746.27" y1="333.21" x2="745.66" y2="328.66" fill="#fff" stroke="#ff8d8d" stroke-miterlimit="10"/>
  <line x1="746.87" y1="338.97" x2="746.27" y2="334.41" fill="#fff" stroke="#ff8d8d" stroke-miterlimit="10"/>
  <line x1="746.66" y1="344.65" x2="747.08" y2="340.08" fill="#fff" stroke="#ff8d8d" stroke-miterlimit="10"/>
  <line x1="745.41" y1="350.07" x2="746.52" y2="345.61" fill="#fff" stroke="#ff8d8d" stroke-miterlimit="10"/>
  <line x1="744.04" y1="355.41" x2="745.15" y2="350.96" fill="#fff" stroke="#ff8d8d" stroke-miterlimit="10"/>
  <line x1="742.49" y1="360.82" x2="743.55" y2="356.35" fill="#fff" stroke="#ff8d8d" stroke-miterlimit="10"/>
  <line x1="740.74" y1="366.8" x2="741.8" y2="362.33" fill="#fff" stroke="#ff8d8d" stroke-miterlimit="10"/>
  <line x1="739.11" y1="372.95" x2="740.17" y2="368.48" fill="#fff" stroke="#ff8d8d" stroke-miterlimit="10"/>
  <line x1="737.9" y1="378.46" x2="738.96" y2="373.99" fill="#fff" stroke="#ff8d8d" stroke-miterlimit="10"/>
  <line x1="736.84" y1="384.67" x2="737.9" y2="380.2" fill="#fff" stroke="#ff8d8d" stroke-miterlimit="10"/>
  <line x1="735.79" y1="391.02" x2="736.84" y2="386.55" fill="#fff" stroke="#ff8d8d" stroke-miterlimit="10"/>
  <line x1="734.37" y1="396.43" x2="735.42" y2="391.96" fill="#fff" stroke="#ff8d8d" stroke-miterlimit="10"/>
  <line x1="732.71" y1="402.92" x2="733.76" y2="398.45" fill="#fff" stroke="#ff8d8d" stroke-miterlimit="10"/>
  <line x1="731.65" y1="409.12" x2="732.71" y2="404.65" fill="#fff" stroke="#ff8d8d" stroke-miterlimit="10"/>
  <line x1="730.13" y1="415.61" x2="731.18" y2="411.14" fill="#fff" stroke="#ff8d8d" stroke-miterlimit="10"/>
  <line x1="728.37" y1="421.97" x2="729.42" y2="417.5" fill="#fff" stroke="#ff8d8d" stroke-miterlimit="10"/>
  <line x1="726.11" y1="427.65" x2="728.37" y2="423.66" fill="#fff" stroke="#ff8d8d" stroke-miterlimit="10"/>
  <line x1="722.84" y1="433.63" x2="725.1" y2="429.63" fill="#fff" stroke="#ff8d8d" stroke-miterlimit="10"/>
  <line x1="719.85" y1="438.95" x2="722.11" y2="434.95" fill="#fff" stroke="#ff8d8d" stroke-miterlimit="10"/>
  <line x1="716.64" y1="444.4" x2="718.9" y2="440.4" fill="#fff" stroke="#ff8d8d" stroke-miterlimit="10"/>
  <line x1="711.73" y1="447.32" x2="715.94" y2="445.47" fill="#fff" stroke="#ff8d8d" stroke-miterlimit="10"/>
  <line x1="706.03" y1="444.51" x2="710.19" y2="446.44" fill="#fff" stroke="#ff8d8d" stroke-miterlimit="10"/>
  <line x1="699.89" y1="441.43" x2="704.06" y2="443.37" fill="#fff" stroke="#ff8d8d" stroke-miterlimit="10"/>
  <line x1="693.6" y1="438.49" x2="697.77" y2="440.43" fill="#fff" stroke="#ff8d8d" stroke-miterlimit="10"/>
  <line x1="687.52" y1="435.98" x2="691.68" y2="437.92" fill="#fff" stroke="#ff8d8d" stroke-miterlimit="10"/>
  <line x1="682.48" y1="433.63" x2="686.65" y2="435.56" fill="#fff" stroke="#ff8d8d" stroke-miterlimit="10"/>
  <line x1="682.08" y1="435.56" x2="679.88" y2="439.59" fill="#fff" stroke="#ff8d8d" stroke-miterlimit="10"/>
  <line x1="679.27" y1="440.38" x2="677.07" y2="444.42" fill="#fff" stroke="#ff8d8d" stroke-miterlimit="10"/>
  <line x1="676.47" y1="445.31" x2="674.27" y2="449.34" fill="#fff" stroke="#ff8d8d" stroke-miterlimit="10"/>
  <line x1="673.31" y1="448.64" x2="669.07" y2="446.87" fill="#fff" stroke="#ff8d8d" stroke-miterlimit="10"/>
  <line x1="668.12" y1="446.19" x2="663.88" y2="444.43" fill="#fff" stroke="#ff8d8d" stroke-miterlimit="10"/>
  <line x1="662.74" y1="444.25" x2="658.5" y2="442.49" fill="#fff" stroke="#ff8d8d" stroke-miterlimit="10"/>
  <line x1="658.11" y1="442.31" x2="653.87" y2="440.55" fill="#fff" stroke="#ff8d8d" stroke-miterlimit="10"/>
  <line x1="653.31" y1="440.47" x2="649.07" y2="438.71" fill="#fff" stroke="#ff8d8d" stroke-miterlimit="10"/>
  <line x1="648.31" y1="438.46" x2="644.07" y2="436.7" fill="#fff" stroke="#ff8d8d" stroke-miterlimit="10"/>
  <line x1="641.79" y1="442.42" x2="644.07" y2="438.43" fill="#fff" stroke="#ff8d8d" stroke-miterlimit="10"/>
  <line x1="639.2" y1="447.49" x2="641.41" y2="443.46" fill="#fff" stroke="#ff8d8d" stroke-miterlimit="10"/>
  <line x1="636.42" y1="453.11" x2="638.63" y2="449.08" fill="#fff" stroke="#ff8d8d" stroke-miterlimit="10"/>
  <line x1="633.89" y1="458.3" x2="636.09" y2="454.27" fill="#fff" stroke="#ff8d8d" stroke-miterlimit="10"/>
  <line x1="628.94" y1="454.66" x2="632.76" y2="457.21" fill="#fff" stroke="#ff8d8d" stroke-miterlimit="10"/>
  <line x1="624.46" y1="451.42" x2="628.28" y2="453.96" fill="#fff" stroke="#ff8d8d" stroke-miterlimit="10"/>
  <line x1="619.25" y1="449.41" x2="623.5" y2="451.15" fill="#fff" stroke="#ff8d8d" stroke-miterlimit="10"/>
  <line x1="614.21" y1="446.89" x2="618.47" y2="448.62" fill="#fff" stroke="#ff8d8d" stroke-miterlimit="10"/>
  <line x1="609.02" y1="444.61" x2="613.27" y2="446.34" fill="#fff" stroke="#ff8d8d" stroke-miterlimit="10"/>
  <line x1="604.28" y1="442.5" x2="608.54" y2="444.23" fill="#fff" stroke="#ff8d8d" stroke-miterlimit="10"/>
  <line x1="598.57" y1="440.08" x2="602.82" y2="441.81" fill="#fff" stroke="#ff8d8d" stroke-miterlimit="10"/>
  <line x1="593.38" y1="437.85" x2="597.63" y2="439.58" fill="#fff" stroke="#ff8d8d" stroke-miterlimit="10"/>
  <line x1="588.72" y1="441.08" x2="592.1" y2="437.97" fill="#fff" stroke="#ff8d8d" stroke-miterlimit="10"/>
  <line x1="585.36" y1="445.25" x2="587.99" y2="441.49" fill="#fff" stroke="#ff8d8d" stroke-miterlimit="10"/>
  <line x1="582.59" y1="450.21" x2="584.9" y2="446.24" fill="#fff" stroke="#ff8d8d" stroke-miterlimit="10"/>
  <line x1="580.03" y1="455.18" x2="582.02" y2="451.04" fill="#fff" stroke="#ff8d8d" stroke-miterlimit="10"/>
  <line x1="577.85" y1="460.44" x2="579.5" y2="456.16" fill="#fff" stroke="#ff8d8d" stroke-miterlimit="10"/>
  <line x1="575.62" y1="465.91" x2="577.28" y2="461.62" fill="#fff" stroke="#ff8d8d" stroke-miterlimit="10"/>
  <line x1="573.22" y1="471.1" x2="574.88" y2="466.81" fill="#fff" stroke="#ff8d8d" stroke-miterlimit="10"/>
  <line x1="570.7" y1="476.91" x2="572.36" y2="472.63" fill="#fff" stroke="#ff8d8d" stroke-miterlimit="10"/>
  <line x1="568.39" y1="482.22" x2="570.05" y2="477.94" fill="#fff" stroke="#ff8d8d" stroke-miterlimit="10"/>
  <line x1="565.99" y1="487.77" x2="567.65" y2="483.49" fill="#fff" stroke="#ff8d8d" stroke-miterlimit="10"/>
  <line x1="728.44" y1="262.97" x2="730.46" y2="258.85" fill="#fff" stroke="#ff8d8d" stroke-miterlimit="10"/>
  <line x1="730.89" y1="257.87" x2="732.91" y2="253.75" fill="#fff" stroke="#ff8d8d" stroke-miterlimit="10"/>
  <line x1="732.91" y1="252.61" x2="734.93" y2="248.49" fill="#fff" stroke="#ff8d8d" stroke-miterlimit="10"/>
  <line x1="735.62" y1="247.1" x2="737.65" y2="242.98" fill="#fff" stroke="#ff8d8d" stroke-miterlimit="10"/>
  <line x1="738.38" y1="241.69" x2="742.16" y2="239.09" fill="#fff" stroke="#ff8d8d" stroke-miterlimit="10"/>
  <line x1="743.52" y1="238.56" x2="744.09" y2="234" fill="#fff" stroke="#ff8d8d" stroke-miterlimit="10"/>
  <line x1="743.91" y1="232.58" x2="745.7" y2="228.35" fill="#fff" stroke="#ff8d8d" stroke-miterlimit="10"/>
  <line x1="745.69" y1="227.55" x2="748.32" y2="223.79" fill="#fff" stroke="#ff8d8d" stroke-miterlimit="10"/>
  <line x1="749.04" y1="220.6" x2="744.98" y2="218.46" fill="#fff" stroke="#ff8d8d" stroke-miterlimit="10"/>
  <line x1="744.25" y1="217.62" x2="740.19" y2="215.48" fill="#fff" stroke="#ff8d8d" stroke-miterlimit="10"/>
  <line x1="739.68" y1="214.95" x2="735.62" y2="212.81" fill="#fff" stroke="#ff8d8d" stroke-miterlimit="10"/>
  <line x1="733.93" y1="212.32" x2="729.87" y2="210.18" fill="#fff" stroke="#ff8d8d" stroke-miterlimit="10"/>
  <line x1="728.49" y1="209.17" x2="724.43" y2="207.03" fill="#fff" stroke="#ff8d8d" stroke-miterlimit="10"/>
  <line x1="722.97" y1="205.43" x2="719.73" y2="202.18" fill="#fff" stroke="#ff8d8d" stroke-miterlimit="10"/>
  <line x1="718.34" y1="201.44" x2="717.03" y2="197.04" fill="#fff" stroke="#ff8d8d" stroke-miterlimit="10"/>
  <line x1="716.45" y1="194.3" x2="715.78" y2="189.76" fill="#fff" stroke="#ff8d8d" stroke-miterlimit="10"/>
  <line x1="715.83" y1="187.72" x2="715.72" y2="183.13" fill="#fff" stroke="#ff8d8d" stroke-miterlimit="10"/>
  <line x1="715.95" y1="181.74" x2="715.8" y2="177.15" fill="#fff" stroke="#ff8d8d" stroke-miterlimit="10"/>
  <line x1="716.19" y1="175.28" x2="716.04" y2="170.69" fill="#fff" stroke="#ff8d8d" stroke-miterlimit="10"/>
  <line x1="716.02" y1="168.74" x2="715.88" y2="164.15" fill="#fff" stroke="#ff8d8d" stroke-miterlimit="10"/>
  <line x1="715.88" y1="163.07" x2="715.73" y2="158.48" fill="#fff" stroke="#ff8d8d" stroke-miterlimit="10"/>
  <line x1="715.85" y1="157.22" x2="715.71" y2="152.63" fill="#fff" stroke="#ff8d8d" stroke-miterlimit="10"/>
  <line x1="715.78" y1="151.22" x2="715.63" y2="146.63" fill="#fff" stroke="#ff8d8d" stroke-miterlimit="10"/>
  <line x1="715.85" y1="144.67" x2="715.71" y2="140.08" fill="#fff" stroke="#ff8d8d" stroke-miterlimit="10"/>
  <line x1="715.52" y1="138.23" x2="712.16" y2="135.1" fill="#fff" stroke="#ff8d8d" stroke-miterlimit="10"/>
  <line x1="711.04" y1="134.62" x2="706.45" y2="134.81" fill="#fff" stroke="#ff8d8d" stroke-miterlimit="10"/>
  <line x1="705.36" y1="134.62" x2="700.91" y2="133.51" fill="#fff" stroke="#ff8d8d" stroke-miterlimit="10"/>
  <line x1="700.02" y1="132.77" x2="700.32" y2="128.19" fill="#fff" stroke="#ff8d8d" stroke-miterlimit="10"/>
  <line x1="700.17" y1="126.89" x2="700.47" y2="122.31" fill="#fff" stroke="#ff8d8d" stroke-miterlimit="10"/>
  <line x1="700.47" y1="120.42" x2="700.77" y2="115.84" fill="#fff" stroke="#ff8d8d" stroke-miterlimit="10"/>
  <line x1="700.76" y1="114.07" x2="701.06" y2="109.48" fill="#fff" stroke="#ff8d8d" stroke-miterlimit="10"/>
  <line x1="700.76" y1="107.64" x2="701.06" y2="103.06" fill="#fff" stroke="#ff8d8d" stroke-miterlimit="10"/>
  <line x1="701.06" y1="101.53" x2="704.14" y2="98.13" fill="#fff" stroke="#ff8d8d" stroke-miterlimit="10"/>
  <line x1="705.41" y1="97.59" x2="709.37" y2="95.26" fill="#fff" stroke="#ff8d8d" stroke-miterlimit="10"/>
  <line x1="710.53" y1="94.47" x2="714.2" y2="91.71" fill="#fff" stroke="#ff8d8d" stroke-miterlimit="10"/>
  <line x1="715.05" y1="90.79" x2="718.18" y2="87.43" fill="#fff" stroke="#ff8d8d" stroke-miterlimit="10"/>
  <line x1="719.27" y1="86.79" x2="723.42" y2="84.82" fill="#fff" stroke="#ff8d8d" stroke-miterlimit="10"/>
  <line x1="724.76" y1="83.88" x2="725.91" y2="79.43" fill="#fff" stroke="#ff8d8d" stroke-miterlimit="10"/>
  <line x1="726.46" y1="77.93" x2="727.61" y2="73.48" fill="#fff" stroke="#ff8d8d" stroke-miterlimit="10"/>
  <line x1="727.99" y1="72.39" x2="728.37" y2="67.81" fill="#fff" stroke="#ff8d8d" stroke-miterlimit="10"/>
  <line x1="728.43" y1="66.42" x2="728.7" y2="61.83" fill="#fff" stroke="#ff8d8d" stroke-miterlimit="10"/>
  <line x1="729.03" y1="60.12" x2="728.63" y2="55.54" fill="#fff" stroke="#ff8d8d" stroke-miterlimit="10"/>
  <line x1="728.5" y1="54.13" x2="727.48" y2="49.65" fill="#fff" stroke="#ff8d8d" stroke-miterlimit="10"/>
  <line x1="727.24" y1="48.57" x2="726.83" y2="43.99" fill="#fff" stroke="#ff8d8d" stroke-miterlimit="10"/>
  <line x1="726.66" y1="42.9" x2="726.26" y2="38.32" fill="#fff" stroke="#ff8d8d" stroke-miterlimit="10"/>
  <line x1="725.9" y1="37.47" x2="725.49" y2="32.9" fill="#fff" stroke="#ff8d8d" stroke-miterlimit="10"/>
  <line x1="725.49" y1="31.9" x2="725.08" y2="27.32" fill="#fff" stroke="#ff8d8d" stroke-miterlimit="10"/>
  <line x1="724.77" y1="25.71" x2="727.04" y2="21.72" fill="#fff" stroke="#ff8d8d" stroke-miterlimit="10"/>
  <line x1="727.99" y1="20.53" x2="732.33" y2="19.04" fill="#fff" stroke="#ff8d8d" stroke-miterlimit="10"/>
  <line x1="734.02" y1="18.4" x2="738.53" y2="19.25" fill="#fff" stroke="#ff8d8d" stroke-miterlimit="10"/>
  <line x1="739.58" y1="19.36" x2="744.1" y2="20.21" fill="#fff" stroke="#ff8d8d" stroke-miterlimit="10"/>
  <line x1="745.51" y1="20.53" x2="750.03" y2="21.37" fill="#fff" stroke="#ff8d8d" stroke-miterlimit="10"/>
  <line x1="750.93" y1="21.99" x2="755.09" y2="23.95" fill="#fff" stroke="#ff8d8d" stroke-miterlimit="10"/>
  <line x1="755.67" y1="24.6" x2="757.71" y2="28.71" fill="#fff" stroke="#ff8d8d" stroke-miterlimit="10"/>
  <line x1="758.08" y1="29.98" x2="758.65" y2="34.54" fill="#fff" stroke="#ff8d8d" stroke-miterlimit="10"/>
  <line x1="758.65" y1="35.61" x2="759.22" y2="40.16" fill="#fff" stroke="#ff8d8d" stroke-miterlimit="10"/>
  <line x1="759.22" y1="41.71" x2="759.79" y2="46.27" fill="#fff" stroke="#ff8d8d" stroke-miterlimit="10"/>
  <line x1="759.79" y1="47.37" x2="760.36" y2="51.93" fill="#fff" stroke="#ff8d8d" stroke-miterlimit="10"/>
  <line x1="760.36" y1="53.26" x2="760.93" y2="57.82" fill="#fff" stroke="#ff8d8d" stroke-miterlimit="10"/>
  <line x1="761.12" y1="59.54" x2="761.32" y2="64.12" fill="#fff" stroke="#ff8d8d" stroke-miterlimit="10"/>
  <line x1="761.47" y1="65.95" x2="760.96" y2="70.51" fill="#fff" stroke="#ff8d8d" stroke-miterlimit="10"/>
  <line x1="760.9" y1="72.14" x2="760.4" y2="76.7" fill="#fff" stroke="#ff8d8d" stroke-miterlimit="10"/>
  <line x1="759.62" y1="78.04" x2="758.09" y2="82.37" fill="#fff" stroke="#ff8d8d" stroke-miterlimit="10"/>
  <line x1="757.27" y1="83.68" x2="755.74" y2="88.01" fill="#fff" stroke="#ff8d8d" stroke-miterlimit="10"/>
  <line x1="755.47" y1="89.42" x2="755.31" y2="94.01" fill="#fff" stroke="#ff8d8d" stroke-miterlimit="10"/>
  <line x1="755.39" y1="96" x2="755.23" y2="100.59" fill="#fff" stroke="#ff8d8d" stroke-miterlimit="10"/>
  <line x1="755.31" y1="102.14" x2="755.15" y2="106.73" fill="#fff" stroke="#ff8d8d" stroke-miterlimit="10"/>
  <line x1="754.93" y1="107.72" x2="754.77" y2="112.31" fill="#fff" stroke="#ff8d8d" stroke-miterlimit="10"/>
  <line x1="754.77" y1="113.64" x2="754.61" y2="118.23" fill="#fff" stroke="#ff8d8d" stroke-miterlimit="10"/>
  <line x1="754.69" y1="119.14" x2="754.53" y2="123.73" fill="#fff" stroke="#ff8d8d" stroke-miterlimit="10"/>
  <line x1="754.53" y1="125.09" x2="754.37" y2="129.68" fill="#fff" stroke="#ff8d8d" stroke-miterlimit="10"/>
  <line x1="754.57" y1="131.24" x2="755.28" y2="135.77" fill="#fff" stroke="#ff8d8d" stroke-miterlimit="10"/>
  <line x1="755.58" y1="136.67" x2="756.29" y2="141.2" fill="#fff" stroke="#ff8d8d" stroke-miterlimit="10"/>
  <line x1="756.55" y1="142.4" x2="757.26" y2="146.94" fill="#fff" stroke="#ff8d8d" stroke-miterlimit="10"/>
  <line x1="757.32" y1="148.13" x2="758.36" y2="152.6" fill="#fff" stroke="#ff8d8d" stroke-miterlimit="10"/>
  <line x1="758.82" y1="154" x2="759.86" y2="158.48" fill="#fff" stroke="#ff8d8d" stroke-miterlimit="10"/>
  <line x1="761.74" y1="164.75" x2="762.78" y2="169.22" fill="#fff" stroke="#ff8d8d" stroke-miterlimit="10"/>
  <line x1="763.55" y1="170.81" x2="764.59" y2="175.28" fill="#fff" stroke="#ff8d8d" stroke-miterlimit="10"/>
  <line x1="765.04" y1="176.43" x2="766.08" y2="180.9" fill="#fff" stroke="#ff8d8d" stroke-miterlimit="10"/>
  <line x1="766.65" y1="182.1" x2="767.03" y2="186.68" fill="#fff" stroke="#ff8d8d" stroke-miterlimit="10"/>
  <line x1="767.11" y1="187.72" x2="767.33" y2="192.31" fill="#fff" stroke="#ff8d8d" stroke-miterlimit="10"/>
  <line x1="767.22" y1="194" x2="767.44" y2="198.59" fill="#fff" stroke="#ff8d8d" stroke-miterlimit="10"/>
  <line x1="767.28" y1="199.51" x2="766.4" y2="204.01" fill="#fff" stroke="#ff8d8d" stroke-miterlimit="10"/>
  <line x1="766" y1="204.78" x2="765.12" y2="209.28" fill="#fff" stroke="#ff8d8d" stroke-miterlimit="10"/>
  <line x1="764.87" y1="210.38" x2="762.06" y2="214.01" fill="#fff" stroke="#ff8d8d" stroke-miterlimit="10"/>
  <line x1="761.25" y1="214.68" x2="757.86" y2="217.79" fill="#fff" stroke="#ff8d8d" stroke-miterlimit="10"/>
  <line x1="757.35" y1="218.07" x2="753.8" y2="220.98" fill="#fff" stroke="#ff8d8d" stroke-miterlimit="10"/>
  <line x1="753.24" y1="221.24" x2="749.24" y2="223.5" fill="#fff" stroke="#ff8d8d" stroke-miterlimit="10"/>
  <line x1="760.25" y1="159.68" x2="761.29" y2="164.15" fill="#fff" stroke="#ff8d8d" stroke-miterlimit="10"/>
</svg>
