<svg xmlns="http://www.w3.org/2000/svg" viewBox="0 0 545.76 598.84">
  <title>Asset 1</title>
  <g id="Layer_2" data-name="Layer 2">
    <g id="Layer_1-2" data-name="Layer 1">
      <path d="M246.55,451.94c-6.73-2.38-13.17-4.21-19.21-6.93a43.85,43.85,0,0,1-11.62-7.65c-7-6.44-6.86-14.37-.17-21.11s15.58-10.35,24.78-12.34c5.1-1.1,6.09-3.31,6.48-8.3.67-8.78-2-13.68-10.06-18.29-18.6-10.63-32.44-26.85-44.09-44.51-11.2-17-21.1-34.81-31.29-52.43-2.41-4.16-4.93-7.51-9.45-9.69-30.21-14.59-60.53-29-90.35-44.34a216.81,216.81,0,0,1-34.68-22.46C2.34,184.57-3.84,158.38,2.1,128.82,8.52,96.9,36,70.19,66.93,65.4c5.19-.8,10.61-.11,16.17-.11-2.1-9.45-4.72-18.12-5.85-27-3-23.38,10.23-38,33.59-38C218,.26,325.13.62,432.27,0c26.45-.15,38.52,20,33.63,42.65-1.62,7.48-3.6,14.89-5.55,22.91,16.43-2.66,31.08,1.26,44.79,9.52,35,21.09,49.82,64.53,34.76,102-6.42,16-19,26.21-32.67,35.61-25.58,17.6-54.39,28.9-82,42.63-12.26,6.1-24.57,12.08-36.72,18.39a13.42,13.42,0,0,0-5.33,5.5c-13.72,26.67-28.76,52.45-48.93,74.88-10.24,11.39-21.65,21.31-35.47,28.27a5.74,5.74,0,0,0-2.76,4c-.33,5-.13,10-.13,15,6.12,1.9,12.15,3.3,17.77,5.67a56.3,56.3,0,0,1,13.76,8c8.75,7.18,8.49,16.43-.26,23.85C320,445,311.42,448.4,302.33,450c-5.54,1-6.64,3.45-6.53,8.61.35,15.37,0,30.75.24,46.13,0,1.75,1.13,4.43,2.49,5.08a100.47,100.47,0,0,1,37.52,31A384.24,384.24,0,0,1,361.1,579.4c6.3,10.94,1,19.35-11.6,19.37q-77,.15-153.95,0c-11,0-16.47-7.81-11.83-17.4,12.15-25.11,27.93-47.49,50.9-64.08a6.82,6.82,0,0,1,1.67-1.1c9.7-3.2,10.9-10.33,10.45-19.48C246,481.7,246.55,466.65,246.55,451.94Zm158.83-220c1.83-.78,3.06-1.24,4.23-1.83q21.18-10.6,42.34-21.25c9.23-4.67,18.55-9.22,27.57-14.27,12.47-7,24-15.27,32.38-27.15,14.46-20.45,11.35-49.58-7.07-66.17C488.21,86.3,466,88.1,452.7,106a67.14,67.14,0,0,0-9,17.17c-5,13.81-8.95,28-13.85,41.82C422,187.14,413.75,209.14,405.38,231.94ZM221.17,329l1.51-1c-32.37-91.71-50.6-186.13-53.73-283.25H120.84a19.23,19.23,0,0,0,0,2.33A816.9,816.9,0,0,0,165,219.35c8.16,21.64,18.23,42.65,28.72,63.3C201.81,298.63,211.93,313.6,221.17,329ZM137,230.9l.69-1.18c-2.24-6.09-4.56-12.15-6.69-18.29Q114.17,163,97.44,114.5c-4.29-12.4-13-20.33-25.76-22.53-15.28-2.65-27.49,3.78-36.6,15.83-16.21,21.45-13.16,49.63,7.17,69.36C53.93,188.48,68.08,196,82.41,203.23c7.6,3.83,15.3,7.45,22.89,11.31C115.89,219.93,126.41,225.44,137,230.9Z" fill="#80c574"/>
    </g>
  </g>
</svg>
