<svg xmlns="http://www.w3.org/2000/svg" width="87.34" height="181.41" viewBox="0 0 87.34 181.41">
  <title>RYTMISK_IKON</title>
  <g id="Layer_2" data-name="Layer 2">
    <g id="Layer_1-2" data-name="Layer 1">
      <path d="M50.08,3.9c1.67,30.49,21.8,47.34,21.8,47.34,31.56,35,3.41,84.42,3.41,84.42L66,134.83c42.18-66.36-15.81-82.17-15.81-82.17l-.57,103C35.47,194.29,6.14,177.09,6.14,177.09-13,133.63,46,141.92,46,141.92L46,3.8Z" fill="#333" stroke="#333" stroke-miterlimit="10"/>
      <path d="M48.25.62C49.92,31.11,70,48,70,48c31.56,35,3.41,84.42,3.41,84.42l-9.29-.83c42.18-66.36-15.81-82.17-15.81-82.17l-.57,103C33.64,191,4.31,173.81,4.31,173.81c-19.12-43.47,39.9-35.18,39.9-35.18L44.19.51Z" stroke="#000" stroke-miterlimit="10"/>
    </g>
  </g>
</svg>
