<svg xmlns="http://www.w3.org/2000/svg" width="251.51" height="244.76" viewBox="0 0 251.51 244.76">
  <title>Spanteloftvej_ikon</title>
  <g id="Layer_2" data-name="Layer 2">
    <g id="Layer_2-2" data-name="Layer 2">
      <path d="M32,202.44c-20,63,35,33,35,33l114-129c89-2,65-63,65-63l-25,27-25-9-5-27,26-28c-70-10-61,75-61,75Z" fill="#70706f"/>
      <path d="M135.12,101.56C72.24,17.68,158,9.44,158,9.44c-56-38-121,51-121,51l8,8-13,12-6-6-26,25,32,34,27-27-8-7,12-11,8,7s17.21-7,42.6,27" fill="#c1c1bc"/>
      <path d="M161.06,128.14,241,202.44c13,11.05,13,29.06,5,37-8.38,8.28-27.51,7.58-38-7l-66.55-80.26" fill="#ffb600"/>
    </g>
  </g>
</svg>
